<?xml version="1.0" standalone="no"?>
<!DOCTYPE svg PUBLIC "-//W3C//DTD SVG 20010904//EN"
 "http://www.w3.org/TR/2001/REC-SVG-20010904/DTD/svg10.dtd">
<svg version="1.0" xmlns="http://www.w3.org/2000/svg" viewBox="0 0 512.000000 512.000000"
 preserveAspectRatio="xMidYMid meet">

<g transform="translate(0.000000,512.000000) scale(0.100000,-0.100000)"
fill="#000000" stroke="none">
<path d="M2480 4460 c-105 -20 -194 -67 -267 -142 -36 -38 -1765 -2793 -1860
-2964 -155 -282 9 -637 325 -703 75 -16 3689 -16 3764 0 142 30 270 129 332
258 67 140 69 284 7 416 -49 104 -1829 2947 -1874 2993 -109 112 -282 170
-427 142z m145 -329 c22 -10 47 -27 56 -37 9 -10 423 -671 920 -1469 l904
-1450 0 -56 c0 -45 -5 -62 -27 -91 -56 -74 111 -68 -1918 -68 -2029 0 -1862
-6 -1918 68 -22 29 -27 46 -27 91 l0 56 904 1450 c497 798 911 1459 920 1469
21 24 89 56 121 56 14 0 43 -9 65 -19z"/>
<path d="M2501 3265 c-118 -37 -157 -139 -139 -370 5 -66 20 -279 33 -473 27
-390 38 -456 87 -497 36 -31 90 -33 134 -6 31 19 53 67 68 146 10 53 68 716
73 839 10 215 -33 340 -125 366 -48 13 -77 12 -131 -5z"/>
<path d="M2491 1649 c-128 -51 -165 -216 -72 -323 57 -65 188 -75 258 -20 120
95 105 266 -29 335 -40 20 -116 24 -157 8z"/>
</g>
</svg>
