<?xml version="1.0" standalone="no"?>
<!DOCTYPE svg PUBLIC "-//W3C//DTD SVG 20010904//EN"
 "http://www.w3.org/TR/2001/REC-SVG-20010904/DTD/svg10.dtd">
<svg version="1.0" xmlns="http://www.w3.org/2000/svg" viewBox="0 0 512.000000 512.000000"
 preserveAspectRatio="xMidYMid meet">

<g transform="translate(0.000000,512.000000) scale(0.100000,-0.100000)"
fill="#000000" stroke="none">
<path d="M2832 4507 c-336 -336 -612 -619 -612 -627 0 -8 32 -135 72 -282 39
-147 69 -270 67 -272 -2 -2 -33 1 -69 6 -145 21 -389 -8 -540 -65 -203 -76
-304 -150 -583 -426 l-228 -225 838 -838 838 -839 226 228 c283 285 364 400
434 607 54 161 78 375 57 516 -5 36 -8 67 -6 69 2 2 125 -28 273 -67 147 -40
275 -72 282 -72 8 0 291 277 629 615 338 338 612 615 608 615 -12 0 -1310 349
-1315 354 -2 2 -80 289 -174 637 -93 349 -173 644 -177 657 -6 20 -74 -45
-620 -591z"/>
<path d="M587 2262 l-137 -137 833 -833 c457 -457 837 -832 842 -832 6 0 70
60 143 133 l132 132 -838 838 -837 837 -138 -138z"/>
<path d="M199 1839 c-261 -385 -262 -916 -3 -1306 332 -500 984 -675 1516
-407 79 40 188 110 188 122 0 9 -1643 1652 -1652 1652 -4 0 -26 -28 -49 -61z"/>
</g>
</svg>
