<?xml version="1.0" standalone="no"?>
<!DOCTYPE svg PUBLIC "-//W3C//DTD SVG 20010904//EN"
 "http://www.w3.org/TR/2001/REC-SVG-20010904/DTD/svg10.dtd">
<svg version="1.0" xmlns="http://www.w3.org/2000/svg" viewBox="0 0 512.000000 512.000000"
 preserveAspectRatio="xMidYMid meet">

<g transform="translate(0.000000,512.000000) scale(0.100000,-0.100000)"
fill="#000000" stroke="none">
<path d="M2480 5103 c-14 -9 -61 -49 -105 -88 -234 -208 -499 -351 -797 -431
-173 -46 -258 -56 -563 -61 -331 -6 -348 -10 -385 -84 -21 -40 -21 -45 -17
-1077 3 -889 6 -1052 20 -1142 112 -731 485 -1270 1238 -1791 195 -134 604
-393 647 -408 38 -14 46 -14 85 0 45 16 515 314 679 430 493 350 795 681 998
1094 78 159 126 291 163 450 62 265 61 225 64 1362 4 1036 4 1042 -17 1082
-37 74 -54 78 -385 84 -305 5 -390 15 -563 61 -298 80 -563 223 -797 431 -113
100 -121 105 -185 105 -36 0 -64 -6 -80 -17z m155 -389 c253 -203 543 -347
866 -429 155 -40 281 -55 502 -62 l208 -6 -4 -946 c-4 -1011 -3 -980 -56
-1206 -81 -340 -262 -660 -531 -939 -212 -219 -422 -380 -867 -664 l-193 -123
-197 126 c-402 257 -607 411 -801 600 -306 297 -507 638 -592 1000 -54 234
-53 212 -57 1216 l-4 936 208 6 c221 7 347 22 502 62 323 82 613 226 866 429
39 31 72 56 75 56 3 0 37 -25 75 -56z"/>
<path d="M2370 3905 c-287 -40 -550 -173 -761 -384 -456 -456 -527 -1158 -172
-1696 88 -133 245 -290 378 -378 257 -169 570 -248 868 -219 323 32 600 163
828 391 456 456 527 1158 172 1696 -88 133 -245 290 -378 378 -278 183 -607
258 -935 212z m333 -296 c415 -62 750 -354 865 -754 160 -552 -165 -1132 -723
-1293 -552 -160 -1132 165 -1293 723 -190 657 309 1325 996 1334 46 1 116 -4
155 -10z"/>
<path d="M3090 2999 c-19 -11 -180 -165 -357 -342 l-323 -322 -177 177 c-98
96 -192 183 -210 192 -68 34 -153 6 -192 -64 -29 -52 -27 -97 8 -151 37 -57
466 -482 508 -503 41 -20 85 -20 126 0 42 21 771 746 808 803 35 54 37 99 8
151 -41 73 -131 100 -199 59z"/>
</g>
</svg>
